<svg width="180" height="198" viewBox="0 0 180 198" fill="none" xmlns="http://www.w3.org/2000/svg">
<path d="M90 21.9999C42.5042 21.9999 4 60.5087 4 108.007C4 155.491 42.5042 194.007 90 194.007C137.496 194.007 176 155.491 176 108.007C176 60.5087 137.496 21.9999 90 21.9999Z" fill="#FCE9D3" stroke="black" stroke-width="8"/>
<path d="M90 3.99991C42.5042 3.99991 4 42.5087 4 90.0066C4 137.491 42.5042 176.007 90 176.007C137.496 176.007 176 137.491 176 90.0066C176 42.5087 137.496 3.99991 90 3.99991Z" fill="#FFBD66" stroke="black" stroke-width="8"/>
<path d="M70.7024 133C109.952 133 131.417 101.071 131.417 73.3838C131.417 72.4767 131.393 71.573 131.357 70.6752C135.524 67.7176 139.143 64.027 142 59.8267C138.179 61.4937 134.06 62.6184 129.75 63.1246C134.155 60.5317 137.536 56.4261 139.131 51.5338C135 53.9349 130.441 55.6802 125.583 56.6201C121.679 52.5473 116.143 50 110 50C98.2143 50 88.6666 59.3836 88.6666 70.951C88.6666 72.5958 88.8453 74.1951 89.2143 75.7288C71.4762 74.8532 55.7619 66.5158 45.2381 53.8379C43.4047 56.9323 42.3452 60.5317 42.3452 64.3684C42.3452 71.6385 46.1071 78.0552 51.8452 81.8101C48.3452 81.7037 45.0476 80.7591 42.1785 79.1879C42.1666 79.2756 42.1667 79.3633 42.1667 79.4556C42.1667 89.6038 49.5238 98.0758 59.2857 99.9976C57.5 100.476 55.6071 100.734 53.6666 100.734C52.2857 100.734 50.9523 100.601 49.6547 100.356C52.369 108.681 60.25 114.739 69.5833 114.91C62.2857 120.529 53.0834 123.878 43.0834 123.878C41.3691 123.878 39.6667 123.782 38 123.588C47.4405 129.53 58.6548 133 70.7024 133Z" fill="#0F7A40"/>
</svg>
